<svg xmlns="http://www.w3.org/2000/svg" xmlns:xlink="http://www.w3.org/1999/xlink" viewBox="0 0 437.34 524.69"><defs><linearGradient id="Degradado_sin_nombre_23" x1="153.47" y1="375.67" x2="153.47" gradientUnits="userSpaceOnUse"><stop offset="0" stop-color="#097ff5"/><stop offset="0.28" stop-color="#1687f7"/><stop offset="0.8" stop-color="#399afd"/><stop offset="1" stop-color="#48a3ff"/></linearGradient><clipPath id="clip-path" transform="translate(53.85 94.8)"><rect width="306.95" height="375.67" style="fill:url(#Degradado_sin_nombre_23)"/></clipPath><linearGradient id="Degradado_sin_nombre_25" x1="140.75" y1="290.87" x2="152.44" y2="424.53" gradientUnits="userSpaceOnUse"><stop offset="0" stop-color="#2390ff"/><stop offset="0.05" stop-color="#2390ff" stop-opacity="0.93"/><stop offset="0.3" stop-color="#2390ff" stop-opacity="0.6"/><stop offset="0.52" stop-color="#2390ff" stop-opacity="0.35"/><stop offset="0.7" stop-color="#2390ff" stop-opacity="0.16"/><stop offset="0.84" stop-color="#2390ff" stop-opacity="0.04"/><stop offset="0.91" stop-color="#2390ff" stop-opacity="0"/></linearGradient><linearGradient id="Degradado_sin_nombre_24" x1="147.72" y1="429.89" x2="147.72" y2="316.85" gradientUnits="userSpaceOnUse"><stop offset="0.09" stop-color="#2390ff" stop-opacity="0"/><stop offset="0.16" stop-color="#2390ff" stop-opacity="0.04"/><stop offset="0.3" stop-color="#2390ff" stop-opacity="0.16"/><stop offset="0.48" stop-color="#2390ff" stop-opacity="0.35"/><stop offset="0.7" stop-color="#2390ff" stop-opacity="0.6"/><stop offset="0.95" stop-color="#2390ff" stop-opacity="0.93"/><stop offset="1" stop-color="#2390ff"/></linearGradient><linearGradient id="Degradado_sin_nombre_1532" x1="9871.35" y1="-5107.52" x2="9871.35" y2="-5252.83" gradientTransform="translate(10019.06 -5149.74) rotate(180)" gradientUnits="userSpaceOnUse"><stop offset="0.04" stop-color="#fff" stop-opacity="0"/><stop offset="0.16" stop-color="#fff" stop-opacity="0.02"/><stop offset="0.28" stop-color="#fff" stop-opacity="0.06"/><stop offset="0.4" stop-color="#fff" stop-opacity="0.14"/><stop offset="0.52" stop-color="#fff" stop-opacity="0.24"/><stop offset="0.63" stop-color="#fff" stop-opacity="0.38"/><stop offset="0.75" stop-color="#fff" stop-opacity="0.55"/><stop offset="0.86" stop-color="#fff" stop-opacity="0.75"/><stop offset="0.98" stop-color="#fff" stop-opacity="0.98"/><stop offset="0.99" stop-color="#fff"/></linearGradient><linearGradient id="Degradado_sin_nombre_1533" x1="190.12" y1="-5140.81" x2="190.12" y2="-5226.52" gradientTransform="matrix(1, 0, 0, -1, 0, -5149.74)" gradientUnits="userSpaceOnUse"><stop offset="0" stop-color="#fff" stop-opacity="0"/><stop offset="0.13" stop-color="#fff" stop-opacity="0.02"/><stop offset="0.25" stop-color="#fff" stop-opacity="0.06"/><stop offset="0.38" stop-color="#fff" stop-opacity="0.14"/><stop offset="0.5" stop-color="#fff" stop-opacity="0.24"/><stop offset="0.62" stop-color="#fff" stop-opacity="0.38"/><stop offset="0.74" stop-color="#fff" stop-opacity="0.55"/><stop offset="0.86" stop-color="#fff" stop-opacity="0.75"/><stop offset="0.98" stop-color="#fff" stop-opacity="0.98"/><stop offset="0.99" stop-color="#fff"/></linearGradient></defs><g style="isolation:isolate"><g id="Layer_2" data-name="Layer 2"><g id="OBJECTS"><rect x="53.85" y="94.8" width="306.95" height="375.67" style="fill:url(#Degradado_sin_nombre_23)"/><g style="clip-path:url(#clip-path)"><rect x="53.85" y="94.8" width="306.95" height="375.67" style="fill:none"/><path d="M-53.85,334.28C-39.7,320.53-16.45,311.79,5.26,316c15,2.87,28.25,9.68,41.91,15.45s28.7,10.69,43.94,9.29c33.38-3.07,54.39-34.34,87.44-39.24,35.17-5.21,71.78,21.31,104.58,9.6,23.7-8.45,35.44-34.4,60.88-38V407.77H-53.85Z" transform="translate(53.85 94.8)" style="opacity:0.30000000000000004;mix-blend-mode:color-burn;fill:url(#Degradado_sin_nombre_25)"/><path d="M-22.85,344.34c18.33,3,28.49-.09,43.72-8.32,10.22-5.52,18.85-13.39,31-15.77,14.88-2.91,30.27,3.37,41.74,11.06s21.21,17.11,34.69,22.67c28,11.55,63.83,2.89,89.06-11.81,10.91-6.37,20.78-13.82,32.66-19.11s26.66-8.24,39.61-4.6c10.64,3,18.47,9.93,28.61,13.78v97.65H-22.85Z" transform="translate(53.85 94.8)" style="opacity:0.45;mix-blend-mode:color-burn;fill:url(#Degradado_sin_nombre_24)"/><path d="M318.28,48.53c-18.33-6-28.49.17-43.71,16.5-10.23,11-18.86,26.58-31,31.31-14.88,5.78-30.26-6.69-41.74-22s-21.21-34-34.69-45C139.1,6.46,103.26,23.64,78,52.83,67.12,65.46,57.25,80.26,45.37,90.76S18.71,107.11,5.76,99.89C-4.88,94-12.71,80.18-22.85,72.55V-42.22H318.28Z" transform="translate(53.85 94.8)" style="opacity:0.6000000000000001;mix-blend-mode:overlay;fill:url(#Degradado_sin_nombre_1532)"/><path d="M-3.25,34.49c20.78-4.63,32.3.14,49.56,12.79,11.59,8.5,21.37,20.6,35.2,24.27,16.87,4.48,34.31-5.19,47.32-17s24-26.34,39.33-34.89c31.73-17.76,72.37-4.45,101,18.18,12.37,9.79,23.56,21.25,37,29.4s30.23,12.67,44.9,7.07C363.12,69.69,372,59,383.49,53.11v-62H-3.25Z" transform="translate(53.85 94.8)" style="opacity:0.6000000000000001;mix-blend-mode:overlay;fill:url(#Degradado_sin_nombre_1533)"/><g style="opacity:0.4;mix-blend-mode:overlay"><path d="M49.67,73.27A2.26,2.26,0,1,1,47.41,71,2.26,2.26,0,0,1,49.67,73.27Z" transform="translate(53.85 94.8)" style="fill:#fff"/><path d="M215.7,291.68a2.26,2.26,0,1,1-2.26-2.26A2.26,2.26,0,0,1,215.7,291.68Z" transform="translate(53.85 94.8)" style="fill:#fff"/><path d="M63.94,352.17A1.16,1.16,0,1,1,62.78,351,1.16,1.16,0,0,1,63.94,352.17Z" transform="translate(53.85 94.8)" style="fill:#fff"/><circle cx="310.25" cy="383.69" r="2.47" style="fill:#fff"/><path d="M76.78,333.81A2.84,2.84,0,1,1,73.94,331,2.84,2.84,0,0,1,76.78,333.81Z" transform="translate(53.85 94.8)" style="fill:#fff"/><path d="M52.47,57.83a1.36,1.36,0,1,1-1.35-1.35A1.35,1.35,0,0,1,52.47,57.83Z" transform="translate(53.85 94.8)" style="fill:#fff"/><path d="M250.93,309.16a1.36,1.36,0,1,1-1.35-1.35A1.35,1.35,0,0,1,250.93,309.16Z" transform="translate(53.85 94.8)" style="fill:#fff"/><circle cx="74.79" cy="160.98" r="0.81" style="fill:#fff"/><path d="M279.83,216.34a.82.82,0,0,1-.81.82.82.82,0,1,1,0-1.63A.81.81,0,0,1,279.83,216.34Z" transform="translate(53.85 94.8)" style="fill:#fff"/><path d="M102.34,311.17a.79.79,0,1,1-.79-.79A.79.79,0,0,1,102.34,311.17Z" transform="translate(53.85 94.8)" style="fill:#fff"/><path d="M28.4,296.73a1.67,1.67,0,1,1-1.67-1.67A1.67,1.67,0,0,1,28.4,296.73Z" transform="translate(53.85 94.8)" style="fill:#fff"/><circle cx="312.34" cy="333.69" r="0.81" style="fill:#fff"/></g><path d="M305.57,416.12H307V-35.69h-1.38V-9.74H276.3V-35.69h-1.39V-9.74H245.64V-35.69h-1.38V-9.74H215V-35.69h-1.38V-9.74H184.34V-35.69H183V-9.74H153.68V-35.69H152.3V-9.74H123V-35.69h-1.38V-9.74H92.38V-35.69H91V-9.74H61.72V-35.69H60.34V-9.74H31.07V-35.69H29.69V-9.74H.42V-35.69H-1V416.12H.42v-26H29.69v26h1.38v-26H60.34v26h1.38v-26H91v26h1.39v-26h29.27v26H123v-26H152.3v26h1.38v-26H183v26h1.39v-26h29.27v26H215v-26h29.27v26h1.38v-26h29.27v26h1.39v-26h29.27ZM29.69,388.76H.42V359.48H29.69Zm30.65,0H31.07V359.48H60.34Zm30.65,0H61.72V359.48H91Zm30.66,0H92.38V359.48h29.27Zm30.65,0H123V359.48H152.3Zm30.65,0H153.68V359.48H183Zm30.66,0H184.34V359.48h29.27Zm30.65,0H215V359.48h29.27Zm30.65,0H245.64V359.48h29.27Zm30.66,0H276.3V359.48h29.27ZM29.69,358.1H.42V328.83H29.69Zm30.65,0H31.07V328.83H60.34Zm30.65,0H61.72V328.83H91Zm30.66,0H92.38V328.83h29.27Zm30.65,0H123V328.83H152.3Zm30.65,0H153.68V328.83H183Zm30.66,0H184.34V328.83h29.27Zm30.65,0H215V328.83h29.27Zm30.65,0H245.64V328.83h29.27Zm30.66,0H276.3V328.83h29.27ZM29.69,327.45H.42V298.18H29.69Zm30.65,0H31.07V298.18H60.34Zm30.65,0H61.72V298.18H91Zm30.66,0H92.38V298.18h29.27Zm30.65,0H123V298.18H152.3Zm30.65,0H153.68V298.18H183Zm30.66,0H184.34V298.18h29.27Zm30.65,0H215V298.18h29.27Zm30.65,0H245.64V298.18h29.27Zm30.66,0H276.3V298.18h29.27ZM29.69,296.8H.42V267.53H29.69Zm30.65,0H31.07V267.53H60.34Zm30.65,0H61.72V267.53H91Zm30.66,0H92.38V267.53h29.27Zm30.65,0H123V267.53H152.3Zm30.65,0H153.68V267.53H183Zm30.66,0H184.34V267.53h29.27Zm30.65,0H215V267.53h29.27Zm30.65,0H245.64V267.53h29.27Zm30.66,0H276.3V267.53h29.27ZM29.69,266.14H.42V236.87H29.69Zm30.65,0H31.07V236.87H60.34Zm30.65,0H61.72V236.87H91Zm30.66,0H92.38V236.87h29.27Zm30.65,0H123V236.87H152.3Zm30.65,0H153.68V236.87H183Zm30.66,0H184.34V236.87h29.27Zm30.65,0H215V236.87h29.27Zm30.65,0H245.64V236.87h29.27Zm30.66,0H276.3V236.87h29.27ZM29.69,235.49H.42V206.22H29.69Zm30.65,0H31.07V206.22H60.34Zm30.65,0H61.72V206.22H91Zm30.66,0H92.38V206.22h29.27Zm30.65,0H123V206.22H152.3Zm30.65,0H153.68V206.22H183Zm30.66,0H184.34V206.22h29.27Zm30.65,0H215V206.22h29.27Zm30.65,0H245.64V206.22h29.27Zm30.66,0H276.3V206.22h29.27ZM29.69,204.84H.42V175.57H29.69Zm30.65,0H31.07V175.57H60.34Zm30.65,0H61.72V175.57H91Zm30.66,0H92.38V175.57h29.27Zm30.65,0H123V175.57H152.3Zm30.65,0H153.68V175.57H183Zm30.66,0H184.34V175.57h29.27Zm30.65,0H215V175.57h29.27Zm30.65,0H245.64V175.57h29.27Zm30.66,0H276.3V175.57h29.27ZM29.69,174.18H.42V144.91H29.69Zm30.65,0H31.07V144.91H60.34Zm30.65,0H61.72V144.91H91Zm30.66,0H92.38V144.91h29.27Zm30.65,0H123V144.91H152.3Zm30.65,0H153.68V144.91H183Zm30.66,0H184.34V144.91h29.27Zm30.65,0H215V144.91h29.27Zm30.65,0H245.64V144.91h29.27Zm30.66,0H276.3V144.91h29.27ZM29.69,143.53H.42V114.26H29.69Zm30.65,0H31.07V114.26H60.34Zm30.65,0H61.72V114.26H91Zm30.66,0H92.38V114.26h29.27Zm30.65,0H123V114.26H152.3Zm30.65,0H153.68V114.26H183Zm30.66,0H184.34V114.26h29.27Zm30.65,0H215V114.26h29.27Zm30.65,0H245.64V114.26h29.27Zm30.66,0H276.3V114.26h29.27ZM29.69,112.88H.42V83.61H29.69Zm30.65,0H31.07V83.61H60.34Zm30.65,0H61.72V83.61H91Zm30.66,0H92.38V83.61h29.27Zm30.65,0H123V83.61H152.3Zm30.65,0H153.68V83.61H183Zm30.66,0H184.34V83.61h29.27Zm30.65,0H215V83.61h29.27Zm30.65,0H245.64V83.61h29.27Zm30.66,0H276.3V83.61h29.27ZM29.69,82.22H.42V53H29.69Zm30.65,0H31.07V53H60.34Zm30.65,0H61.72V53H91Zm30.66,0H92.38V53h29.27Zm30.65,0H123V53H152.3Zm30.65,0H153.68V53H183Zm30.66,0H184.34V53h29.27Zm30.65,0H215V53h29.27Zm30.65,0H245.64V53h29.27Zm30.66,0H276.3V53h29.27ZM29.69,51.57H.42V22.3H29.69Zm30.65,0H31.07V22.3H60.34Zm30.65,0H61.72V22.3H91Zm30.66,0H92.38V22.3h29.27Zm30.65,0H123V22.3H152.3Zm30.65,0H153.68V22.3H183Zm30.66,0H184.34V22.3h29.27Zm30.65,0H215V22.3h29.27Zm30.65,0H245.64V22.3h29.27Zm30.66,0H276.3V22.3h29.27ZM29.69,20.92H.42V-8.35H29.69Zm30.65,0H31.07V-8.35H60.34Zm30.65,0H61.72V-8.35H91Zm30.66,0H92.38V-8.35h29.27Zm30.65,0H123V-8.35H152.3Zm30.65,0H153.68V-8.35H183Zm30.66,0H184.34V-8.35h29.27Zm30.65,0H215V-8.35h29.27Zm30.65,0H245.64V-8.35h29.27Zm30.66,0H276.3V-8.35h29.27Z" transform="translate(53.85 94.8)" style="fill:#fff;opacity:0.15;mix-blend-mode:overlay"/><g style="opacity:0.6000000000000001;mix-blend-mode:overlay"><line x1="9.94" y1="486.2" x2="137.84" y2="358.3" style="fill:none;stroke:#fff;stroke-miterlimit:10;stroke-width:0.49px"/><path d="M-41.72,393.38a3,3,0,0,1-4.17,0,3,3,0,0,1,0-4.17,3,3,0,0,1,4.17,0A3,3,0,0,1-41.72,393.38Z" transform="translate(53.85 94.8)" style="fill:#fff"/><path d="M86,265.69a2.95,2.95,0,1,0-4.17,0A3,3,0,0,0,86,265.69Z" transform="translate(53.85 94.8)" style="fill:#fff"/></g><g style="opacity:0.6000000000000001;mix-blend-mode:overlay"><line x1="308.83" y1="223.54" x2="412.76" y2="119.61" style="fill:none;stroke:#fff;stroke-miterlimit:10;stroke-width:0.49px"/><path d="M257.17,130.73a2.95,2.95,0,1,1,0-4.17A3,3,0,0,1,257.17,130.73Z" transform="translate(53.85 94.8)" style="fill:#fff"/><path d="M360.89,27a2.95,2.95,0,1,0-4.16,0A2.93,2.93,0,0,0,360.89,27Z" transform="translate(53.85 94.8)" style="fill:#fff"/></g><g style="opacity:0.6000000000000001;mix-blend-mode:overlay"><line x1="277.9" y1="483.41" x2="381.83" y2="379.48" style="fill:none;stroke:#fff;stroke-miterlimit:10;stroke-width:0.49px"/><path d="M226.24,390.59a2.95,2.95,0,1,1,0-4.17A3,3,0,0,1,226.24,390.59Z" transform="translate(53.85 94.8)" style="fill:#fff"/><circle cx="327.88" cy="284.78" r="2.95" transform="translate(-0.44 173.3) rotate(-12.62)" style="fill:#fff"/></g><g style="opacity:0.6000000000000001;mix-blend-mode:overlay"><line x1="295.5" y1="497.78" x2="399.43" y2="393.85" style="fill:none;stroke:#fff;stroke-miterlimit:10;stroke-width:0.49px"/><path d="M243.84,405a2.95,2.95,0,1,1,0-4.16A2.93,2.93,0,0,1,243.84,405Z" transform="translate(53.85 94.8)" style="fill:#fff"/><path d="M347.56,301.24a2.95,2.95,0,1,0-4.17,0A3,3,0,0,0,347.56,301.24Z" transform="translate(53.85 94.8)" style="fill:#fff"/></g><g style="opacity:0.6000000000000001;mix-blend-mode:overlay"><line x1="131.75" y1="214.35" x2="291.54" y2="54.56" style="fill:none;stroke:#fff;stroke-miterlimit:10;stroke-width:0.49px"/><path d="M80.09,121.53a2.95,2.95,0,1,1,0-4.17A3,3,0,0,1,80.09,121.53Z" transform="translate(53.85 94.8)" style="fill:#fff"/><path d="M239.67-38a3,3,0,0,0,0-4.17,3,3,0,0,0-4.17,0,3,3,0,0,0,0,4.17A3,3,0,0,0,239.67-38Z" transform="translate(53.85 94.8)" style="fill:#fff"/></g><g style="opacity:0.6000000000000001;mix-blend-mode:overlay"><line x1="203.58" y1="162.64" x2="363.37" y2="2.84" style="fill:none;stroke:#fff;stroke-miterlimit:10;stroke-width:0.49px"/><path d="M151.92,69.82a2.95,2.95,0,1,1,0-4.17A3,3,0,0,1,151.92,69.82Z" transform="translate(53.85 94.8)" style="fill:#fff"/><circle cx="309.42" cy="-91.85" r="2.95" transform="translate(148.35 243.75) rotate(-31.72)" style="fill:#fff"/></g><g style="opacity:0.6000000000000001;mix-blend-mode:overlay"><line x1="31.91" y1="499.26" x2="124.63" y2="406.54" style="fill:none;stroke:#fff;stroke-miterlimit:10;stroke-width:0.49px"/><path d="M-19.75,406.44a3,3,0,0,1-4.17,0,3,3,0,0,1,0-4.17,3,3,0,0,1,4.17,0A3,3,0,0,1-19.75,406.44Z" transform="translate(53.85 94.8)" style="fill:#fff"/><circle cx="124.52" cy="406.65" r="2.95" style="fill:#fff"/></g><path d="M236.52,309.77a6.9,6.9,0,1,1-6.89-6.9A6.9,6.9,0,0,1,236.52,309.77Z" transform="translate(53.85 94.8)" style="fill:#fff;opacity:0.6000000000000001;mix-blend-mode:overlay"/><circle cx="283.47" cy="404.56" r="13.56" style="fill:none;stroke:#fff;stroke-miterlimit:10;stroke-width:0.49px;opacity:0.6000000000000001;mix-blend-mode:overlay"/><circle cx="84.6" cy="197.13" r="6.89" style="fill:#fff;opacity:0.6000000000000001;mix-blend-mode:overlay"/><circle cx="84.6" cy="197.13" r="13.56" style="fill:none;stroke:#fff;stroke-miterlimit:10;stroke-width:0.49px;opacity:0.6000000000000001;mix-blend-mode:overlay"/><path d="M248.91,30.93a9.8,9.8,0,1,1,4-13.28A9.81,9.81,0,0,1,248.91,30.93Z" transform="translate(53.85 94.8)" style="fill:#fff;opacity:0.6000000000000001;mix-blend-mode:overlay"/><circle cx="244.26" cy="22.3" r="14.82" transform="translate(237.9 354.87) rotate(-81.01)" style="fill:none;stroke:#fff;stroke-miterlimit:10;stroke-width:0.49px;opacity:0.6000000000000001;mix-blend-mode:overlay"/></g></g></g></g></svg>